<!DOCTYPE svg PUBLIC "-//W3C//DTD SVG 20010904//EN" "http://www.w3.org/TR/2001/REC-SVG-20010904/DTD/svg10.dtd">
<svg version="1.0" xmlns="http://www.w3.org/2000/svg" width="40px" height="40px" viewBox="0 0 400 400" preserveAspectRatio="xMidYMid meet">
<g id="layer101" fill="#0fafa5" stroke="none">
 <path d="M52 348 c-17 -17 -17 -279 0 -296 17 -17 279 -17 296 0 16 16 16 100 0 116 -7 7 -40 12 -78 12 -38 0 -71 5 -78 12 -7 7 -12 40 -12 78 0 38 -5 71 -12 78 -7 7 -33 12 -58 12 -25 0 -51 -5 -58 -12z m116 -73 c4 -93 14 -103 106 -107 l71 -3 0 -55 0 -55 -145 0 -145 0 -3 134 c-1 74 0 141 3 149 3 9 20 12 57 10 l53 -3 3 -70z"/>
 <path d="M212 348 c-16 -16 -16 -120 0 -136 16 -16 120 -16 136 0 7 7 12 37 12 68 0 31 -5 61 -12 68 -7 7 -37 12 -68 12 -31 0 -61 -5 -68 -12z m91 -19 c3 -11 15 -23 27 -26 18 -5 21 -12 18 -47 l-3 -41 -65 0 -65 0 -3 54 c-4 73 0 81 47 81 31 0 40 -4 44 -21z m45 -3 c3 -13 -1 -17 -14 -14 -11 2 -20 11 -22 22 -3 13 1 17 14 14 11 -2 20 -11 22 -22z"/>
 </g>

</svg>